PathFileType	4	(X/Y/Z)	C:/Users/beibeiliu/ov580/test_trc/User1\sequence.27_training_dense_right.trc
DataRate	CameraRate	NumFrames	NumMarkers	Units	OrigDataRate	OrigDataStartFrame	OrigNumFrames
120	120	12	19	mm	120	33	259
Frame#	Time	ThumbCMC			ThumbMCP			ThumbIP			ThumbTip			IndexMCP			IndexPIP			IndexTip			MiddleMCP			MiddlePIP			MiddleTip			RingMCP			RingPIP			RingTip			PinkyMCP			PinkyPIP			PinkyTip			BackHand1			BackHand2			BackHand3	
		X0	Y0	Z0	X1	Y1	Z1	X2	Y2	Z2	X3	Y3	Z3	X4	Y4	Z4	X5	Y5	Z5	X6	Y6	Z6	X7	Y7	Z7	X8	Y8	Z8	X9	Y9	Z9	X10	Y10	Z10	X11	Y11	Z11	X12	Y12	Z12	X13	Y13	Z13	X14	Y14	Z14	X15	Y15	Z15	X16	Y16	Z16	X17	Y17	Z17	X18	Y18	Z18	
32	0.266667	85.3043	32.534	114.242	56.7381	24.1701	91.3967	37.7945	22.7617	72.4276	24.4165	14.0076	52.5159	95.1368	55.3177	29.3273	80.2431	43.5943	-1.85169	70.8073	18.2293	-10.2813	120.297	49.4425	17.7517	103.151	34.1745	-12.1485	88.3269	-1.07481	-5.62928	140.934	35.7611	18.2836	126.52	21.8072	-9.29803	109.934	-7.47377	0.579013	156.092	15.0132	32.667	146.816	4.23221	5.15111	117.246	-12.9137	12.524	152.376	32.1185	76.8362	158.686	25.6883	107.277	125.424	46.6035	95.6949	
33	0.275	86.6501	31.0447	112.159	58.5974	22.5599	95.9784	39.8815	20.1449	75.1687	23.6042	14.0385	52.4405	91.6818	55.4944	25.9041	82.9598	42.5737	-0.496194	73.2758	12.173	-7.54102	124.563	47.8648	18.4249	108.138	36.401	-13.0422	89.5627	4.34462	-11.2335	144.126	36.5087	16.466	132.248	23.9084	-10.5872	116.475	-3.17526	-7.03891	159.004	15.1956	31.361	151	7.24693	4.8597	121.951	-13.3075	0.988552	151.996	33.2472	77.7356	156.305	27.6149	107.039	121.93	45.7636	100.396	
34	0.283333	87.4197	31.7598	109.264	57.3197	24.2649	92.5926	43.883	20.2694	74.395	23.721	13.8144	52.3697	97.5721	52.2549	26.263	81.0646	39.6869	-2.41116	71.8423	11.562	-5.54643	121.527	51.7674	15.5337	111.287	38.9431	-12.9691	91.2355	3.91367	-14.036	144.066	37.8736	20.0919	136.859	28.0925	-9.24686	113.813	0.241864	-13.0621	159.352	13.7735	32.4235	154.363	6.55931	5.43042	128.275	-6.77696	-5.69414	152.333	28.7799	78.5583	156.133	25.1875	110.417	123.141	45.9869	97.0444	
35	0.291667	88.9575	31.2783	112.449	57.9945	24.2398	90.9139	39.8782	21.0049	74.3632	28.3784	12.3457	53.1032	94.116	54.9067	24.3567	86.8853	38.9155	-0.0166055	70.1003	11.802	-3.6117	125.777	51.542	14.7033	114.652	40.044	-15.1217	97.2605	8.00941	-22.3078	148.488	35.389	22.157	137.012	30.7638	-11.7522	120.277	2.8958	-21.6016	159.878	12.4018	30.2448	156.645	7.09849	8.34323	134.917	-6.61535	-11.0883	150.61	31.9534	78.7037	157.553	24.6677	112.391	127.017	45.4149	97.6472	
36	0.3	88.0649	33.1216	108.376	60.944	22.4305	93.2412	39.1723	21.4999	69.9842	25.5195	12.0561	53.2863	98.6002	52.354	24.108	84.1259	39.8935	-1.34144	72.6037	9.74791	-3.10072	124.939	52.6258	16.0548	118.814	43.7423	-14.3792	96.7993	16.8619	-32.0893	147.874	35.1192	22.6765	141.742	30.9158	-12.6309	124.822	10.4051	-28.5024	159.869	6.4235	32.9609	156.14	0.200502	2.48841	141.022	-3.98088	-15.0865	149.841	28.575	77.1855	156.183	26.5228	106.761	126.774	44.5494	99.6335	
37	0.308333	89.9145	31.8672	111.119	59.1906	23.6061	93.991	37.9575	21.745	70.1631	24.5255	12.3642	52.902	98.407	51.4065	25.4916	87.7204	38.5241	-1.83762	66.7154	12.545	-5.24833	129.757	50.9488	16.3833	125.264	44.946	-15.9873	107.378	23.6545	-39.7352	149.232	32.8613	22.0285	144.476	30.2992	-13.787	130.637	16.7498	-33.0229	157.99	1.99675	28.94	153.429	-3.70676	2.94101	138.474	-7.67756	-18.9769	152.213	27.761	77.0801	160.127	23.9897	104.923	126.841	45.7502	93.4864	
38	0.316667	90.1331	34.0958	111.811	60.9089	24.5054	93.5657	39.9324	22.515	71.2742	25.1024	12.7409	56.988	99.2001	51.9421	21.9875	85.8077	40.7062	-3.3508	67.6813	13.4699	-7.10728	133.52	48.1516	18.1678	127.792	50.238	-13.5572	114.185	37.0543	-44.6879	146.648	31.0412	17.3523	147.041	27.9801	-10.9512	132.269	17.3965	-35.2027	154.027	-0.274862	29.9541	151.502	-7.72578	7.73558	137.123	-10.7865	-15.4469	150.727	25.0557	76.0305	157.502	23.9152	104.894	129.62	46.2033	94.095	
39	0.325	87.6859	36.7893	112.634	60.907	25.8261	89.4543	43.7531	21.7928	70.0029	26.4838	13.0034	57.7914	100.238	54.5729	28.9095	89.7714	47.908	-2.03282	69.5335	23.2517	-12.994	132.514	51.6259	17.8946	132.878	51.7139	-14.4833	125.497	43.207	-45.3456	146.891	25.8161	15.2458	142.029	24.6435	-13.4262	128.454	13.2536	-37.1663	148.609	-0.82092	27.8497	143.56	-11.4898	5.03435	126.757	-17.9585	-15.7804	153.143	22.6885	73.9309	160.356	19.0685	106.786	129.637	47.0257	94.2731	
40	0.333333	89.6092	38.2822	109.942	63.1812	25.1035	92.2661	42.9108	22.1818	73.7972	27.2469	15.1014	56.8154	103.486	57.3128	29.1324	96.4147	49.6921	-1.75066	74.9779	28.2203	-19.0063	136.817	47.8316	20.9374	135.901	53.703	-7.48734	134.017	51.4858	-41.8259	144.844	20.7863	18.5796	137.73	19.5831	-13.1035	125.942	7.26849	-34.7978	147.938	-7.63414	27.7189	136.677	-17.3638	6.09433	117.102	-24.4459	-10.6081	151.355	23.1953	73.6698	161.558	20.0395	105.822	132.397	42.9157	94.5113	
41	0.341667	92.0221	37.2734	110.382	62.7451	25.6239	95.2546	44.7139	22.5771	72.0212	25.1947	15.0454	55.3907	104.217	59.9919	30.1017	98.9944	55.9066	-1.25381	83.2452	42.9138	-21.8209	136.3	50.5686	19.4168	140.432	53.0493	-8.00853	141.361	53.4977	-40.6092	141.557	19.4508	14.06	132.814	17.0738	-11.9214	115.216	-0.0606289	-34.4469	145.032	-9.51764	29.6748	125.325	-18.5981	7.99164	105.066	-28.4253	-1.39003	153.643	22.0875	75.0882	159.394	17.7131	102.977	130.766	45.1879	96.2162	
42	0.35	93.4747	37.3972	109.331	64.7349	24.9452	94.4288	43.0236	23.0346	72.5586	24.4157	15.5119	55.0416	107.983	59.1634	27.9252	104.089	59.4122	2.28248	92.33	51.6545	-23.0929	138.991	47.7996	19.6309	142.247	52.006	-4.27726	144.135	55.5721	-36.3299	136.583	20.5851	16.0089	126.373	12.7804	-13.5763	107.248	0.610764	-27.998	141.496	-11.938	28.9262	123.115	-22.3077	11.7457	92.9016	-29.7969	8.50713	153.211	21.7248	74.9131	160.875	16.7941	102.614	131.257	45.2185	93.074	
43	0.358333	91.3281	38.8333	111.395	65.9185	24.807	93.1138	45.483	22.4334	74.4436	28.6573	15.228	58.1356	109.545	59.6633	34.2682	104.604	68.0152	1.9234	98.6601	63.9233	-21.28	135.342	46.6128	23.8653	138.664	54.8298	-5.7862	141.842	55.9461	-33.9302	135.89	19.8252	17.0223	118.34	10.0886	-12.9154	100.008	-7.70889	-22.2917	137.273	-14.686	28.3648	114.264	-23.0489	17.7495	86.1177	-29.7617	21.1205	152.37	21.9175	75.4307	161.009	18.1123	103.673	134.591	42.2683	96.6259	
